<svg xmlns="http://www.w3.org/2000/svg" width="19.563" height="19.583" viewBox="0 0 19.563 19.583">
  <g id="noun-external-3734197" transform="translate(-2.6 -2.5)">
    <path id="Path_713" data-name="Path 713" d="M16.261,35.381H4.54V23.66h7.594l1.96-1.96H3.57a.969.969,0,0,0-.97.97V36.351a.969.969,0,0,0,.97.97H17.251a.969.969,0,0,0,.97-.97V25.827l-1.96,1.96Z" transform="translate(0 -15.238)" fill="#fff"/>
    <path id="Path_714" data-name="Path 714" d="M47.954,2.5H42.215a.957.957,0,0,0-1.01.9.957.957,0,0,0,1.01.9h3.267l-9.5,8.439a.818.818,0,0,0,0,1.276,1.077,1.077,0,0,0,1.419,0l9.522-8.42v2.9a1.018,1.018,0,0,0,2.021,0V3.4A.924.924,0,0,0,47.954,2.5Z" transform="translate(-26.78)" fill="#fff"/>
  </g>
</svg>
